<svg xmlns="http://www.w3.org/2000/svg" xmlns:xlink="http://www.w3.org/1999/xlink" viewBox="0 0 64 64"><defs><style>.cls-1{fill:url(#linear-gradient);}.cls-2{fill:url(#linear-gradient-2);}.cls-3{fill:#aae0e5;}.cls-4{fill:#77cacb;}.cls-5{fill:url(#linear-gradient-3);}.cls-6{fill:#8288a1;}.cls-7{fill:#d7dbe2;}.cls-8{fill:url(#linear-gradient-4);}.cls-9{fill:#5b8dc9;}.cls-10{fill:url(#linear-gradient-5);}.cls-11{fill:url(#linear-gradient-6);}.cls-12{fill:url(#linear-gradient-7);}.cls-13{fill:url(#linear-gradient-8);}.cls-14{fill:url(#linear-gradient-9);}.cls-15{fill:url(#linear-gradient-10);}</style><linearGradient id="linear-gradient" x1="32" y1="55" x2="32" y2="15" gradientUnits="userSpaceOnUse"><stop offset="0" stop-color="#a0a6ba"/><stop offset="1" stop-color="#c6ccda"/></linearGradient><linearGradient id="linear-gradient-2" x1="32" y1="51" x2="32" y2="19" gradientUnits="userSpaceOnUse"><stop offset="0" stop-color="#9dd5df"/><stop offset="1" stop-color="#c3e1f5"/></linearGradient><linearGradient id="linear-gradient-3" y1="63" y2="55" xlink:href="#linear-gradient"/><linearGradient id="linear-gradient-4" x1="32" y1="33" x2="32" y2="21" gradientUnits="userSpaceOnUse"><stop offset="0" stop-color="#7aa8d7"/><stop offset="1" stop-color="#c3d2e7"/></linearGradient><linearGradient id="linear-gradient-5" y1="25" y2="13" xlink:href="#linear-gradient-4"/><linearGradient id="linear-gradient-6" y1="17" y2="5" xlink:href="#linear-gradient-4"/><linearGradient id="linear-gradient-7" y1="9" y2="1" xlink:href="#linear-gradient-4"/><linearGradient id="linear-gradient-8" x1="16" y1="46" x2="16" y2="42" gradientUnits="userSpaceOnUse"><stop offset="0" stop-color="#e9a254"/><stop offset="1" stop-color="#f4bb79"/></linearGradient><linearGradient id="linear-gradient-9" x1="32" x2="32" xlink:href="#linear-gradient-8"/><linearGradient id="linear-gradient-10" x1="48" x2="48" xlink:href="#linear-gradient-8"/></defs><title>Database</title><g id="Database"><path class="cls-1" d="M8,15a3,3,0,0,0-3,3V55H59V18a3,3,0,0,0-3-3Z"/><path class="cls-2" d="M55,19V51H9V19Z"/><path class="cls-3" d="M55,19v2H9V19Z"/><path class="cls-4" d="M55,49v2H9V49Z"/><path class="cls-5" d="M3,55H61a2,2,0,0,1,2,2v2a4,4,0,0,1-4,4H5a4,4,0,0,1-4-4V57A2,2,0,0,1,3,55Z"/><path class="cls-6" d="M63,57v2a4,4,0,0,1-4,4H5a4,4,0,0,1-4-4V57a4,4,0,0,0,4,4H59A4,4,0,0,0,63,57Z"/><polygon class="cls-7" points="40 58 24 58 22 55 42 55 40 58"/><rect class="cls-6" x="5" y="53" width="54" height="2"/><path class="cls-8" d="M48,21v8c0,2.21-7.16,4-16,4s-16-1.79-16-4V21c0,2.21,7.16,4,16,4S48,23.21,48,21Z"/><path class="cls-9" d="M48,27v2c0,2.21-7.16,4-16,4s-16-1.79-16-4V27c0,2.21,7.16,4,16,4S48,29.21,48,27Z"/><path class="cls-10" d="M48,13v8c0,2.21-7.16,4-16,4s-16-1.79-16-4V13c0,2.21,7.16,4,16,4S48,15.21,48,13Z"/><path class="cls-11" d="M48,5v8c0,2.21-7.16,4-16,4s-16-1.79-16-4V5c0,2.21,7.16,4,16,4S48,7.21,48,5Z"/><ellipse class="cls-12" cx="32" cy="5" rx="16" ry="4"/><circle class="cls-13" cx="16" cy="44" r="2"/><circle class="cls-14" cx="32" cy="44" r="2"/><circle class="cls-15" cx="48" cy="44" r="2"/><path d="M31,13a1,1,0,0,0,2,0A1,1,0,0,0,31,13Z"/><path d="M36,14a1,1,0,0,0,0-2A1,1,0,0,0,36,14Z"/><path d="M28,12a1,1,0,0,0,0,2A1,1,0,0,0,28,12Z"/><path d="M32,20a1,1,0,0,0,0,2A1,1,0,0,0,32,20Z"/><path d="M36,20a1,1,0,0,0,0,2A1,1,0,0,0,36,20Z"/><path d="M28,20a1,1,0,0,0,0,2A1,1,0,0,0,28,20Z"/><path d="M31,29a1,1,0,0,0,2,0A1,1,0,0,0,31,29Z"/><path d="M36,30a1,1,0,0,0,0-2A1,1,0,0,0,36,30Z"/><path d="M28,28a1,1,0,0,0,0,2A1,1,0,0,0,28,28Z"/><path d="M61,54H60V18a4,4,0,0,0-4-4H49V5c0-6.65-34-6.66-34,0v9H8a4,4,0,0,0-4,4V54H3a3,3,0,0,0-3,3v2a5,5,0,0,0,5,5H59a5,5,0,0,0,5-5V57A3,3,0,0,0,61,54ZM47,29c0,.87-5.26,3-15,3s-15-2.13-15-3V23.54c6,3.25,24,3.26,30,0ZM32,43a1,1,0,0,1,0,2A1,1,0,0,1,32,43ZM47,21c0,.87-5.26,3-15,3s-15-2.13-15-3V15.54c6,3.25,24,3.26,30,0Zm0-8c0,.87-5.26,3-15,3s-15-2.13-15-3V7.54c6,3.25,24,3.26,30,0ZM15,29c0,2.81,5.63,4.15,11,4.69V37H16a1,1,0,0,0-1,1v3.18a3,3,0,1,0,2,0V39H27a1,1,0,0,0,1-1V33.86c1.06.07,2.07.11,3,.13v7.19a3,3,0,1,0,2,0V34c.93,0,1.94-.06,3-.13V38a1,1,0,0,0,1,1H47v2.18a3,3,0,1,0,2,0V38a1,1,0,0,0-1-1H38V33.69c5.37-.54,11-1.88,11-4.69V20h5V50H10V20h5Zm1,14a1,1,0,0,1,0,2A1,1,0,0,1,16,43Zm32,0a1,1,0,0,1,0,2A1,1,0,0,1,48,43ZM32,2c9.74,0,15,2.13,15,3S41.74,8,32,8,17,5.87,17,5,22.26,2,32,2ZM6,18a2,2,0,0,1,2-2h7v2H9a1,1,0,0,0-1,1V51a1,1,0,0,0,1,1H55a1,1,0,0,0,1-1V19a1,1,0,0,0-1-1H49V16h7a2,2,0,0,1,2,2V54H6ZM40.13,56l-.67,1H24.54l-.67-1ZM62,59a3,3,0,0,1-3,3H5a3,3,0,0,1-3-3V57a1,1,0,0,1,1-1H21.46l1.71,2.55c.42.64-.41.45,16.83.45.69,0,.74-.3,2.54-3H61a1,1,0,0,1,1,1Z"/></g></svg>