<svg xmlns="http://www.w3.org/2000/svg" xmlns:xlink="http://www.w3.org/1999/xlink" viewBox="0 0 64 64"><defs><style>.cls-1{fill:url(#linear-gradient);}.cls-2{fill:url(#linear-gradient-2);}.cls-3{fill:#aae0e5;}.cls-4{fill:#77cacb;}.cls-5{fill:url(#linear-gradient-3);}.cls-6{fill:#8288a1;}.cls-7{fill:#d7dbe2;}.cls-8{fill:url(#linear-gradient-4);}.cls-9{fill:url(#linear-gradient-5);}.cls-10{fill:url(#linear-gradient-6);}</style><linearGradient id="linear-gradient" x1="32" y1="55" x2="32" y2="15" gradientUnits="userSpaceOnUse"><stop offset="0" stop-color="#a0a6ba"/><stop offset="1" stop-color="#c6ccda"/></linearGradient><linearGradient id="linear-gradient-2" x1="32" y1="51" x2="32" y2="19" gradientUnits="userSpaceOnUse"><stop offset="0" stop-color="#9dd5df"/><stop offset="1" stop-color="#c3e1f5"/></linearGradient><linearGradient id="linear-gradient-3" x1="32" y1="63" x2="32" y2="55" xlink:href="#linear-gradient"/><linearGradient id="linear-gradient-4" x1="50" y1="4.5" x2="60" y2="4.5" xlink:href="#linear-gradient"/><linearGradient id="linear-gradient-5" x1="34.5" y1="51" x2="34.5" y2="1" gradientUnits="userSpaceOnUse"><stop offset="0" stop-color="#d4d8e1"/><stop offset="1" stop-color="#f3f4f5"/></linearGradient><linearGradient id="linear-gradient-6" x1="22" y1="12" x2="22" y2="6" gradientUnits="userSpaceOnUse"><stop offset="0" stop-color="#fbcc88"/><stop offset="1" stop-color="#ffe5c3"/></linearGradient></defs><title>Digital Agreement</title><g id="Digital_Agreement" data-name="Digital Agreement"><path class="cls-1" d="M8,15a3,3,0,0,0-3,3V55H59V18a3,3,0,0,0-3-3Z"/><path class="cls-2" d="M55,19V51H9V19Z"/><path class="cls-3" d="M55,19v2H9V19Z"/><path class="cls-4" d="M55,49v2H9V49Z"/><path class="cls-5" d="M3,55H61a2,2,0,0,1,2,2v2a4,4,0,0,1-4,4H5a4,4,0,0,1-4-4V57A2,2,0,0,1,3,55Z"/><path class="cls-6" d="M63,57v2a4,4,0,0,1-4,4H5a4,4,0,0,1-4-4V57a4,4,0,0,0,4,4H59A4,4,0,0,0,63,57Z"/><polygon class="cls-7" points="40 58 24 58 22 55 42 55 40 58"/><rect class="cls-6" x="5" y="53" width="54" height="2"/><path class="cls-8" d="M60,6V8H50V6A5,5,0,0,1,60,6Z"/><path class="cls-9" d="M55,1a5,5,0,0,0-5,5V51H14V6a5,5,0,0,1,5-5Z"/><circle class="cls-10" cx="22" cy="9" r="3"/><path d="M61,54H60V18a4,4,0,0,0-4-4H51V9h9a1,1,0,0,0,1-1V6a6,6,0,0,0-6-6H19a6,6,0,0,0-6,6v8H8a4,4,0,0,0-4,4V54H3a3,3,0,0,0-3,3v2a5,5,0,0,0,5,5H59a5,5,0,0,0,5-5V57A3,3,0,0,0,61,54ZM51,20h3V50H51ZM59,6V7H51V6a4,4,0,0,1,8,0ZM15,6a4,4,0,0,1,4-4H50.53A6.07,6.07,0,0,0,49,6V50H15ZM10,50V20h3V50ZM6,18a2,2,0,0,1,2-2h5v2H9a1,1,0,0,0-1,1V51a1,1,0,0,0,1,1H55a1,1,0,0,0,1-1V19a1,1,0,0,0-1-1H51V16h5a2,2,0,0,1,2,2V54H6ZM40.13,56l-.67,1H24.54l-.67-1ZM62,59a3,3,0,0,1-3,3H5a3,3,0,0,1-3-3V57a1,1,0,0,1,1-1H21.46l1.71,2.55c.42.64-.45.45,16.83.45.69,0,.74-.3,2.54-3H61a1,1,0,0,1,1,1Z"/><path d="M22,13a4,4,0,1,0-4-4A4,4,0,0,0,22,13Zm0-6a2,2,0,1,1-2,2A2,2,0,0,1,22,7Z"/><path d="M29,10h8a1,1,0,0,0,0-2H29A1,1,0,0,0,29,10Z"/><path d="M24,19H45a1,1,0,0,0,0-2H24A1,1,0,0,0,24,19Z"/><path d="M19,24H45a1,1,0,0,0,0-2H19A1,1,0,0,0,19,24Z"/><path d="M19,29H45a1,1,0,0,0,0-2H19A1,1,0,0,0,19,29Z"/><path d="M19,34H39a1,1,0,0,0,0-2H19A1,1,0,0,0,19,34Z"/><path d="M44,44H37c-.94,0-1-2-1-2a1,1,0,0,0-1.71-.71l-1,1-.38-.76a1,1,0,0,0-1.6-.26,18.29,18.29,0,0,1-3.18,2.51A26,26,0,0,1,29,38.24a1,1,0,0,0-1.73-.89l-6,7a1,1,0,0,0,1.52,1.3l3.5-4.09c-.74,5.41,1.24,5.7,5.44,2.07.45.91.55,1.26,1.14,1.36s.77-.18,1.54-1A2.77,2.77,0,0,0,37,46h7A1,1,0,0,0,44,44Z"/></g></svg>