<svg xmlns="http://www.w3.org/2000/svg" xmlns:xlink="http://www.w3.org/1999/xlink" viewBox="0 0 64 64"><defs><style>.cls-1{fill:url(#linear-gradient);}.cls-2{fill:url(#linear-gradient-2);}.cls-3{fill:url(#linear-gradient-3);}.cls-4{fill:url(#linear-gradient-4);}.cls-5{fill:#dd8b37;}.cls-6{fill:url(#linear-gradient-5);}.cls-7{fill:url(#linear-gradient-6);}.cls-8{fill:url(#linear-gradient-7);}.cls-9{fill:url(#linear-gradient-8);}</style><linearGradient id="linear-gradient" x1="24" y1="63" x2="24" y2="43" gradientUnits="userSpaceOnUse"><stop offset="0" stop-color="#e9a254"/><stop offset="1" stop-color="#f4bb79"/></linearGradient><linearGradient id="linear-gradient-2" x1="40" x2="40" y2="29" xlink:href="#linear-gradient"/><linearGradient id="linear-gradient-3" x1="56" x2="56" y2="14" xlink:href="#linear-gradient"/><linearGradient id="linear-gradient-4" x1="8" x2="8" y2="39" xlink:href="#linear-gradient"/><linearGradient id="linear-gradient-5" x1="8" y1="29" x2="8" y2="25" gradientUnits="userSpaceOnUse"><stop offset="0" stop-color="#da5466"/><stop offset="1" stop-color="#f4929c"/></linearGradient><linearGradient id="linear-gradient-6" x1="24" y1="33" x2="24" y2="29" xlink:href="#linear-gradient-5"/><linearGradient id="linear-gradient-7" x1="40" y1="19" x2="40" y2="15" xlink:href="#linear-gradient-5"/><linearGradient id="linear-gradient-8" x1="53.77" y1="7.54" x2="53.77" y2="1" xlink:href="#linear-gradient-5"/></defs><title>hockey stick growth</title><g id="hockey_stick_growth" data-name="hockey stick growth"><rect class="cls-1" x="20" y="43" width="8" height="20"/><rect class="cls-2" x="36" y="29" width="8" height="34"/><rect class="cls-3" x="52" y="14" width="8" height="49"/><rect class="cls-4" x="4" y="39" width="8" height="24"/><rect class="cls-5" x="4" y="60" width="8" height="3"/><rect class="cls-5" x="20" y="60" width="8" height="3"/><rect class="cls-5" x="36" y="60" width="8" height="3"/><rect class="cls-5" x="52" y="60" width="8" height="3"/><circle class="cls-6" cx="8" cy="27" r="2"/><circle class="cls-7" cx="24" cy="31" r="2"/><circle class="cls-8" cx="40" cy="17" r="2"/><polygon class="cls-9" points="56.01 7.54 50.53 1.1 57 1 56.01 7.54"/><path d="M63,62H61V14a1,1,0,0,0-1-1H52a1,1,0,0,0-1,1V62H45V29a1,1,0,0,0-1-1H36a1,1,0,0,0-1,1V62H29V43a1,1,0,0,0-1-1H20a1,1,0,0,0-1,1V62H13V39a1,1,0,0,0-1-1H4a1,1,0,0,0-1,1V62H1a1,1,0,0,0,0,2H63A1,1,0,0,0,63,62ZM5,62V40h6V62Zm16,0V44h6V62Zm16,0V30h6V62Zm16,0V15h6V62Z"/><path d="M10.5,28.66,21,31.29a3,3,0,1,0,5.75-1.39L38.54,19.6a3,3,0,0,0,4.2-3.8L53.3,5.9C55.35,8.31,55.39,8.54,56,8.54a1,1,0,0,0,1-.85c1.06-7,1.17-6.87.75-7.35S57.55,0,50.52.1a1,1,0,0,0-.75,1.65L52,4.37l-10.63,10a3,3,0,0,0-4.15,3.75L25.46,28.4a3,3,0,0,0-4,1L11,26.72a3,3,0,1,0-.47,1.94ZM55.83,2l-.48,3.2L52.67,2.07ZM41,17a1,1,0,0,1-2,0A1,1,0,0,1,41,17ZM24,30a1,1,0,0,1,0,2A1,1,0,0,1,24,30ZM8,26a1,1,0,0,1,0,2A1,1,0,0,1,8,26Z"/></g></svg>