<svg xmlns="http://www.w3.org/2000/svg" xmlns:xlink="http://www.w3.org/1999/xlink" viewBox="0 0 64 64"><defs><style>.cls-1{fill:url(#linear-gradient);}.cls-2{fill:url(#linear-gradient-2);}.cls-3{fill:url(#linear-gradient-3);}.cls-4{fill:#f6b756;}.cls-5{fill:#5b8dc9;}.cls-6{fill:url(#linear-gradient-4);}.cls-7{fill:url(#linear-gradient-5);}.cls-8{fill:url(#linear-gradient-6);}.cls-9{fill:url(#linear-gradient-7);}.cls-10{fill:url(#linear-gradient-8);}.cls-11{fill:url(#linear-gradient-9);}.cls-12{fill:url(#linear-gradient-10);}.cls-13{fill:#42455e;}</style><linearGradient id="linear-gradient" x1="32" y1="27" x2="32" y2="3" gradientUnits="userSpaceOnUse"><stop offset="0" stop-color="#fbcc88"/><stop offset="1" stop-color="#ffe5c3"/></linearGradient><linearGradient id="linear-gradient-2" x1="32" y1="17.17" x2="32" y2="7.38" gradientUnits="userSpaceOnUse"><stop offset="0" stop-color="#7aa8d7"/><stop offset="1" stop-color="#c3d2e7"/></linearGradient><linearGradient id="linear-gradient-3" x1="32" y1="26.99" x2="32" y2="17.19" xlink:href="#linear-gradient-2"/><linearGradient id="linear-gradient-4" x1="13" y1="61" x2="13" y2="37" xlink:href="#linear-gradient"/><linearGradient id="linear-gradient-5" x1="13" y1="51.17" x2="13" y2="41.38" xlink:href="#linear-gradient-2"/><linearGradient id="linear-gradient-6" x1="13" y1="60.99" x2="13" y2="51.19" xlink:href="#linear-gradient-2"/><linearGradient id="linear-gradient-7" x1="51" y1="61" x2="51" y2="37" xlink:href="#linear-gradient"/><linearGradient id="linear-gradient-8" x1="51" y1="51.17" x2="51" y2="41.38" xlink:href="#linear-gradient-2"/><linearGradient id="linear-gradient-9" x1="51" y1="60.99" x2="51" y2="51.19" xlink:href="#linear-gradient-2"/><linearGradient id="linear-gradient-10" x1="32" y1="49" x2="32" y2="25" gradientUnits="userSpaceOnUse"><stop offset="0" stop-color="#474f72"/><stop offset="1" stop-color="#878c9f"/></linearGradient></defs><title>Teamwork</title><g id="Teamwork"><circle class="cls-1" cx="32" cy="15" r="12"/><path class="cls-2" d="M27.64,13v-1.5c0-5.6,8.72-5.45,8.72,0V13C36.36,18.63,27.64,18.47,27.64,13Z"/><path class="cls-3" d="M39.78,24.13a12,12,0,0,1-15.56,0,21.13,21.13,0,0,1,1-2.81,7.56,7.56,0,0,1,13.48,0A21.13,21.13,0,0,1,39.78,24.13Z"/><path class="cls-4" d="M25.26,21.32a21.13,21.13,0,0,0-1,2.81,12,12,0,0,1-4.08-10.91A12,12,0,0,0,25.26,21.32Z"/><path class="cls-4" d="M39.78,24.13a21.13,21.13,0,0,0-1-2.81,12,12,0,0,0,5.12-8.1A12,12,0,0,1,39.78,24.13Z"/><path class="cls-5" d="M39.78,24.13a12,12,0,0,1-15.56,0,21.13,21.13,0,0,1,1-2.81,12,12,0,0,0,13.48,0A21.13,21.13,0,0,1,39.78,24.13Z"/><circle class="cls-6" cx="13" cy="49" r="12"/><path class="cls-7" d="M8.64,47v-1.5c0-5.6,8.72-5.45,8.72,0V47C17.36,52.63,8.64,52.47,8.64,47Z"/><path class="cls-8" d="M20.78,58.13a12,12,0,0,1-15.56,0,21.13,21.13,0,0,1,1-2.81,7.56,7.56,0,0,1,13.48,0A21.13,21.13,0,0,1,20.78,58.13Z"/><path class="cls-4" d="M6.26,55.32a21.13,21.13,0,0,0-1,2.81A12,12,0,0,1,1.14,47.22,12,12,0,0,0,6.26,55.32Z"/><path class="cls-4" d="M20.78,58.13a21.13,21.13,0,0,0-1-2.81,12,12,0,0,0,5.12-8.1A12,12,0,0,1,20.78,58.13Z"/><path class="cls-5" d="M20.78,58.13a12,12,0,0,1-15.56,0,21.13,21.13,0,0,1,1-2.81,12,12,0,0,0,13.48,0A21.13,21.13,0,0,1,20.78,58.13Z"/><circle class="cls-9" cx="51" cy="49" r="12"/><path class="cls-10" d="M46.64,47v-1.5c0-5.6,8.72-5.45,8.72,0V47C55.36,52.63,46.64,52.47,46.64,47Z"/><path class="cls-11" d="M58.78,58.13a12,12,0,0,1-15.56,0,21.13,21.13,0,0,1,1-2.81,7.56,7.56,0,0,1,13.48,0A21.13,21.13,0,0,1,58.78,58.13Z"/><path class="cls-4" d="M44.26,55.32a21.13,21.13,0,0,0-1,2.81,12,12,0,0,1-4.08-10.91A12,12,0,0,0,44.26,55.32Z"/><path class="cls-4" d="M58.78,58.13a21.13,21.13,0,0,0-1-2.81,12,12,0,0,0,5.12-8.1A12,12,0,0,1,58.78,58.13Z"/><path class="cls-5" d="M58.78,58.13a12,12,0,0,1-15.56,0,21.13,21.13,0,0,1,1-2.81,12,12,0,0,0,13.48,0A21.13,21.13,0,0,1,58.78,58.13Z"/><path class="cls-12" d="M40.84,35.36l3-1.76-3-5.2-3,1.76A9.13,9.13,0,0,0,35,28.52V25H29v3.52a9.13,9.13,0,0,0-2.84,1.64L23.11,28.4l-3,5.2,3.05,1.76a8.42,8.42,0,0,0,0,3.28L20.11,40.4l3,5.2,3.05-1.76A9.13,9.13,0,0,0,29,45.48V49h6V45.48a9.13,9.13,0,0,0,2.84-1.64l3,1.76,3-5.2-3-1.76A8.42,8.42,0,0,0,40.84,35.36Z"/><path class="cls-13" d="M41.07,38.77l2.82,1.63-3,5.2-3-1.76A9.13,9.13,0,0,1,35,45.48V49H29V45.48a9.13,9.13,0,0,1-2.84-1.64L23.11,45.6l-3-5.2,2.82-1.63A10.48,10.48,0,0,0,41.07,38.77Z"/><circle class="cls-13" cx="32" cy="37" r="3"/><path d="M51,36a13,13,0,0,0-8,2.74c-1.73-1-.76-.1-1.09-2.86,4-2.33,3.86-1-.17-8a1,1,0,0,0-1.37-.36L37.93,29C35.8,27.38,36,28.35,36,27.35,50.13,22.79,46.61,2,32,2,20,2,14.4,17.08,23.57,24.9A13,13,0,0,0,28,27.35c0,1,.21,0-1.93,1.61l-2.46-1.42a1,1,0,0,0-1.37.36l-3,5.2a1,1,0,0,0,.37,1.36l2.46,1.42c-.34,2.86.67,1.85-1.09,2.86A13,13,0,0,0,4.57,58.9h0C16,67.47,28.76,56.7,25.48,45.38c1.09-.63,0-.33,2.52.78V49a1,1,0,0,0,1,1h6a1,1,0,0,0,1-1V46.16c2.45-1.07,1.44-1.4,2.52-.78C35,57.52,49.07,67.19,59.43,58.9,68.62,51,63,36,51,36ZM29,24c-.22,0-1,.08-1,1.24a10.33,10.33,0,0,1-2.6-1.46l.37-1.11a6.57,6.57,0,0,1,12.46,0l.37,1.11A10.34,10.34,0,0,1,36,25.24c0-1.15-.76-1.24-1-1.24Zm-.36-11.18V11.73a3.36,3.36,0,1,1,6.72,0v1.09a3.36,3.36,0,1,1-6.72,0ZM32,4a11,11,0,0,1,8.22,18.3,8.56,8.56,0,0,0-4.8-5.38c2-1.65,1.94-3.5,1.94-5.19a5.36,5.36,0,1,0-10.72,0c0,1.8,0,3.55,1.94,5.19a8.56,8.56,0,0,0-4.8,5.38A11,11,0,0,1,32,4ZM9.64,46.82V45.73a3.36,3.36,0,1,1,6.72,0v1.09a3.36,3.36,0,0,1-6.72,0ZM19.46,57.9a11,11,0,0,1-12.92,0c-.19-.14-.2,0,.23-1.23a6.57,6.57,0,0,1,12.46,0C19.65,57.94,19.67,57.75,19.46,57.9Zm1.76-1.6a8.54,8.54,0,0,0-4.8-5.38c2-1.65,1.94-3.5,1.94-5.19a5.36,5.36,0,1,0-10.72,0c0,1.8,0,3.55,1.94,5.19a8.53,8.53,0,0,0-4.8,5.38A11,11,0,0,1,19.24,39.94c-.35.67-.27.49,3,6.16a1,1,0,0,0,1.45.32A11,11,0,0,1,21.22,56.3Zm16-13.22c-2,1.69-3.19,1.21-3.19,2.4V48H30c0-2.23.22-3.15-.67-3.47-2.45-.86-2.65-2.15-3.67-1.56l-2.19,1.26-2-3.46c1.94-1.12,2.84-1.39,2.67-2.31-.77-4.17,1.75-2.68-2.67-5.23l2-3.46L25.66,31c1.05.6,1.16-.67,3.67-1.56.82-.29.67-.8.67-3.47h4v2.52c0,1.19,1.22.71,3.19,2.4.66.57,1,.18,3.34-1.15l2,3.46C38.92,35.31,40,34.41,40,37s-1.07,1.69,2.53,3.77l-2,3.46C38.59,43.12,37.91,42.47,37.19,43.08Zm10.45,3.74V45.73a3.36,3.36,0,1,1,6.72,0v1.09a3.36,3.36,0,0,1-6.72,0ZM57.46,57.9a11,11,0,0,1-12.92,0c-.19-.14-.2,0,.23-1.23a6.57,6.57,0,0,1,12.46,0C57.65,57.94,57.67,57.75,57.46,57.9Zm1.76-1.6a8.54,8.54,0,0,0-4.8-5.38c2-1.65,1.94-3.5,1.94-5.19a5.36,5.36,0,1,0-10.72,0c0,1.8,0,3.55,1.94,5.19a8.53,8.53,0,0,0-4.8,5.38,11,11,0,0,1-2.47-9.88,1,1,0,0,0,1.45-.32c3.34-5.79,3.35-5.5,3-6.16A11,11,0,0,1,59.22,56.3Z"/><path d="M32,33a4,4,0,1,0,4,4A4,4,0,0,0,32,33Zm0,6a2,2,0,1,1,2-2A2,2,0,0,1,32,39Z"/></g></svg>